<svg width="100" height="90" viewBox="0 0 100 90" fill="none" xmlns="http://www.w3.org/2000/svg">
<path d="M75.1357 62.9324C76.6981 60.6606 77.3074 57.8597 76.8298 55.1454C76.352 52.4311 74.8264 50.0256 72.5883 48.4576L68.7535 45.7728L71.431 41.882C72.2065 40.7571 72.7557 39.4899 73.0474 38.1529C73.339 36.8159 73.3671 35.4353 73.1304 34.0903C72.8936 32.7452 72.3965 31.4619 71.6675 30.314C70.9385 29.166 69.9919 28.1758 68.8819 27.4002L60.4434 21.4922L51.8706 33.9497L44.201 28.58L46.8785 24.6892C48.4423 22.4175 49.0527 19.6159 48.5755 16.9007C48.0982 14.1855 46.5727 11.7791 44.3339 10.2106L29.7501 0L23.8506 8.57269C23.0772 9.69749 22.5298 10.964 22.24 12.3002C21.9497 13.6361 21.9226 15.0153 22.1598 16.3589C22.397 17.7025 22.8941 18.9844 23.6227 20.1313C24.3514 21.2781 25.2968 22.2671 26.4055 23.0423L26.398 23.0533L31.9696 26.9541L31.9824 26.9291L67.4784 51.7808L67.4609 51.7966L69.369 53.1325C70.385 53.8468 71.0781 54.9399 71.2968 56.1732C71.5156 57.4064 71.2423 58.6798 70.5366 59.7154L60.2972 74.5946L56.4521 71.9026C55.4373 71.1874 54.7463 70.0936 54.5301 68.8605C54.3138 67.6273 54.59 66.355 55.2982 65.322L64.3225 52.2085L59.7197 48.9861L50.6969 62.0975C49.1338 64.3687 48.5238 67.1695 49.0013 69.8838C49.4788 72.5982 51.0045 75.0037 53.2429 76.5712L61.6843 82.4813L75.1357 62.9324ZM56.4724 37.1745L61.8295 29.3899L65.6643 32.0747C66.6817 32.7896 67.3756 33.884 67.5943 35.1188C67.8129 36.3536 67.5387 37.6284 66.8313 38.6646L64.1538 42.5554L56.4724 37.1745ZM29.6143 18.3704C28.5987 17.6569 27.9061 16.5639 27.6887 15.3312C27.4709 14.0982 27.7457 12.8256 28.4532 11.7921L31.1341 7.89639L41.1143 14.8837C42.1313 15.5971 42.8239 16.691 43.0404 17.925C43.2568 19.1591 42.979 20.4321 42.2681 21.4643L39.5906 25.3551L29.6143 18.3704ZM47.4401 40.3888L40.6777 50.2155L36.839 47.5279C35.8249 46.8123 35.1344 45.7185 34.9182 44.4856C34.702 43.2527 34.9777 41.9806 35.6852 40.9473L39.7667 35.0164L35.161 31.7918L31.0782 37.7248C30.3035 38.8493 29.7548 40.1158 29.4636 41.4521C29.1723 42.7883 29.1442 44.1681 29.3807 45.5123C29.6173 46.8567 30.114 48.1392 30.8424 49.2866C31.5707 50.4341 32.5165 51.4239 33.6256 52.1995L33.6229 52.2035L42.0643 58.1136L52.0438 43.6119L47.4401 40.3888Z" fill="#EEF2A8"/>
</svg>
