<svg width="100" height="90" viewBox="0 0 100 90" fill="none" xmlns="http://www.w3.org/2000/svg">
<path d="M78.9744 66.6829C80.5368 64.4111 81.1461 61.6102 80.6685 58.8959C80.1907 56.1816 78.6651 53.7761 76.427 52.2081L72.5922 49.5233L75.2697 45.6325C76.0452 44.5076 76.5944 43.2404 76.8861 41.9034C77.1777 40.5664 77.2058 39.1858 76.9691 37.8408C76.7323 36.4957 76.2352 35.2124 75.5062 34.0645C74.7772 32.9165 73.8306 31.9263 72.7206 31.1507L64.2821 25.2427L55.7093 37.7002L48.0397 32.3305L50.7172 28.4397C52.281 26.168 52.8914 23.3664 52.4142 20.6512C51.9369 17.936 50.4114 15.5296 48.1726 13.9611L33.5888 3.75049L27.6893 12.3232C26.9159 13.448 26.3685 14.7145 26.0787 16.0507C25.7884 17.3866 25.7613 18.7658 25.9985 20.1094C26.2357 21.453 26.7328 22.7349 27.4614 23.8818C28.1901 25.0286 29.1355 26.0176 30.2442 26.7928L30.2367 26.8038L35.8083 30.7046L35.8211 30.6796L71.3171 55.5313L71.2996 55.5471L73.2077 56.883C74.2237 57.5973 74.9168 58.6904 75.1355 59.9237C75.3543 61.1569 75.081 62.4303 74.3753 63.4659L64.1359 78.3451L60.2908 75.6531C59.276 74.9379 58.585 73.8441 58.3688 72.611C58.1525 71.3778 58.4287 70.1055 59.1369 69.0725L68.1612 55.959L63.5584 52.7366L54.5356 65.848C52.9725 68.1192 52.3625 70.92 52.84 73.6343C53.3175 76.3487 54.8432 78.7542 57.0816 80.3217L65.523 86.2318L78.9744 66.6829ZM60.3111 40.925L65.6682 33.1404L69.503 35.8252C70.5204 36.5401 71.2143 37.6345 71.433 38.8693C71.6516 40.1041 71.3774 41.3789 70.67 42.4151L67.9925 46.3059L60.3111 40.925ZM33.453 22.1209C32.4374 21.4074 31.7448 20.3144 31.5274 19.0817C31.3096 17.8487 31.5844 16.5761 32.2919 15.5426L34.9728 11.6469L44.953 18.6342C45.97 19.3476 46.6626 20.4415 46.8791 21.6755C47.0955 22.9096 46.8177 24.1826 46.1068 25.2148L43.4293 29.1056L33.453 22.1209ZM51.2788 44.1393L44.5164 53.966L40.6777 51.2784C39.6636 50.5628 38.9731 49.469 38.7569 48.2361C38.5407 47.0032 38.8164 45.7311 39.5239 44.6978L43.6054 38.7669L38.9997 35.5423L34.9169 41.4753C34.1422 42.5998 33.5935 43.8663 33.3023 45.2026C33.011 46.5388 32.9829 47.9186 33.2194 49.2628C33.456 50.6072 33.9527 51.8897 34.6811 53.0371C35.4094 54.1846 36.3552 55.1744 37.4643 55.95L37.4616 55.954L45.903 61.8641L55.8825 47.3624L51.2788 44.1393Z" fill="#3A5631"/>
</svg>
